<svg xmlns="http://www.w3.org/2000/svg" viewBox="0 0 120 109.87"><defs><style>.cls-1{fill:#fa776c;}.cls-2{fill:#624cf5;}</style></defs><g id="Layer_2" data-name="Layer 2"><g id="Layer_1-2" data-name="Layer 1"><path class="cls-1" d="M27.66,109.87a10,10,0,0,1-8.57-15.15L34.17,69.58a20,20,0,0,1,17.15-9.71H68.68a20,20,0,0,1,17.15,9.71l15.08,25.14a10,10,0,0,1-8.57,15.15Z"/><path class="cls-2" d="M0,6A6,6,0,0,1,10.17,1.7L23.9,15A20,20,0,0,1,30,29.35v25a20.07,20.07,0,0,1-2.85,10.29l-16,26.67A6,6,0,0,1,0,88.2Z"/><path class="cls-2" d="M120,6A6,6,0,0,0,109.83,1.7L96.1,15A20,20,0,0,0,90,29.35v25a20.07,20.07,0,0,0,2.85,10.29l16,26.67A6,6,0,0,0,120,88.2Z"/><path class="cls-1" d="M45,38.87h0a15,15,0,0,1,15-15h0a15,15,0,0,1,15,15h0a15,15,0,0,1-15,15h0A15,15,0,0,1,45,38.87Z"/></g></g></svg>