<?xml version="1.0" encoding="utf-8"?>
<!-- Generator: Adobe Illustrator 26.0.1, SVG Export Plug-In . SVG Version: 6.00 Build 0)  -->
<svg version="1.1" id="Layer_1" xmlns="http://www.w3.org/2000/svg" xmlns:xlink="http://www.w3.org/1999/xlink" x="0px" y="0px"
	 viewBox="0 0 518 120" style="enable-background:new 0 0 518 120;" xml:space="preserve">
<style type="text/css">
	.st0{fill:#FA776C;}
	.st1{fill:#624CF5;}
</style>
<path class="st0" d="M32.3,116.8c-7.8,0-12.6-8.5-8.6-15.1l15.1-25.1c3.6-6,10.1-9.7,17.1-9.7h17.4c7,0,13.5,3.7,17.1,9.7l15.1,25.1
	c4,6.7-0.8,15.1-8.6,15.1L32.3,116.8z"/>
<path class="st1" d="M4.6,12.9c0-5.3,6.4-8,10.2-4.3l13.7,13.3c3.9,3.8,6.1,9,6.1,14.4v25c0,3.6-1,7.2-2.9,10.3l-16,26.7
	c-3.1,5.2-11.1,3-11.1-3.1L4.6,12.9z"/>
<path class="st1" d="M124.6,12.9c0-5.3-6.4-8-10.2-4.3l-13.7,13.3c-3.9,3.8-6.1,9-6.1,14.4v25c0,3.6,1,7.2,2.9,10.3l16,26.7
	c3.1,5.2,11.1,3,11.1-3.1V12.9z"/>
<path class="st0" d="M49.6,45.8L49.6,45.8c0-8.3,6.7-15,15-15l0,0c8.3,0,15,6.7,15,15l0,0c0,8.3-6.7,15-15,15l0,0
	C56.3,60.8,49.6,54.1,49.6,45.8z"/>
</svg>
